<?xml version="1.0" encoding="UTF-8"?>
<svg id="Layer_1" xmlns="http://www.w3.org/2000/svg" version="1.1" viewBox="0 0 500 500">
  <!-- Generator: Adobe Illustrator 29.0.0, SVG Export Plug-In . SVG Version: 2.1.0 Build 186)  -->
  <defs>
    <style>
      .st0 {
        fill: #fff;
      }
    </style>
  </defs>
  <path class="st0" d="M37.84,382.45c1.17-3.49,2.32-6.71,3.42-9.68,1.11-2.97,2.19-5.77,3.24-8.44,1.04-2.67,2.08-5.21,3.12-7.64,1.03-2.43,2.08-4.82,3.16-7.2h4.33c1.07,2.38,2.13,4.77,3.16,7.2,1.03,2.43,2.07,4.97,3.14,7.64,1.06,2.66,2.14,5.47,3.23,8.44,1.1,2.97,2.25,6.19,3.45,9.68h-5.09c-1.71-5.01-3.39-9.83-5.04-14.46-1.64-4.63-3.34-8.97-5.09-13.03-1.74,4.03-3.44,8.36-5.09,13.01-1.65,4.65-3.31,9.48-4.99,14.48h-4.95ZM37.84,382.45"/>
  <path class="st0" d="M95.67,379.21c2.82,0,4.84-.55,6.07-1.66,1.22-1.11,1.83-2.6,1.83-4.47,0-1.21-.26-2.22-.76-3.05-.51-.83-1.17-1.49-2-1.98-.82-.48-1.79-.84-2.87-1.04-1.1-.21-2.21-.31-3.36-.31h-1.13v-3.61h1.56c.79,0,1.61-.09,2.45-.24.84-.16,1.61-.45,2.31-.85.7-.41,1.27-.98,1.71-1.69.44-.71.67-1.61.67-2.68,0-.89-.16-1.65-.47-2.29-.32-.63-.74-1.16-1.26-1.56-.52-.41-1.13-.71-1.81-.89-.68-.17-1.4-.26-2.17-.26-1.52,0-2.81.22-3.87.67-1.07.44-1.96.9-2.68,1.38l-1.71-3.37c.38-.26.86-.53,1.45-.84.59-.3,1.24-.58,1.98-.83.73-.25,1.51-.47,2.35-.64.85-.17,1.72-.27,2.64-.27,1.74,0,3.25.22,4.52.64,1.27.43,2.32,1.03,3.14,1.81.82.78,1.44,1.7,1.85,2.76.41,1.06.62,2.21.62,3.44,0,1.71-.49,3.18-1.48,4.4-.98,1.22-2.17,2.15-3.56,2.79.85.25,1.67.62,2.47,1.09.79.47,1.48,1.07,2.07,1.81.59.73,1.06,1.56,1.42,2.52.37.95.55,2.01.55,3.18,0,1.42-.24,2.75-.74,3.97-.49,1.22-1.25,2.28-2.28,3.16-1.03.89-2.32,1.59-3.87,2.1-1.55.5-3.39.76-5.52.76-.82,0-1.67-.06-2.54-.2-.87-.12-1.69-.28-2.45-.47-.76-.2-1.42-.38-2-.57-.57-.2-.99-.35-1.24-.48l.85-3.85c.54.25,1.44.59,2.69,1,1.25.41,2.78.62,4.59.62h0ZM95.67,379.21"/>
  <path class="st0" d="M131.19,369.23c0-3.2.44-6.03,1.34-8.48.88-2.46,2.14-4.53,3.78-6.2,1.63-1.68,3.61-2.96,5.94-3.83,2.33-.88,4.95-1.32,7.87-1.36l.33,3.71c-1.87.03-3.57.24-5.11.62-1.53.38-2.91.99-4.11,1.81-1.2.83-2.22,1.9-3.04,3.21-.83,1.32-1.45,2.94-1.86,4.88.82-.38,1.74-.7,2.78-.95,1.03-.26,2.1-.38,3.21-.38,1.87,0,3.46.29,4.76.86,1.3.56,2.36,1.32,3.19,2.25.82.94,1.42,2.01,1.79,3.23.36,1.22.55,2.5.55,3.83,0,1.2-.21,2.44-.62,3.71-.41,1.27-1.04,2.43-1.88,3.48-.85,1.05-1.91,1.9-3.21,2.57-1.3.67-2.84,1-4.62,1-3.62,0-6.36-1.24-8.25-3.71-1.89-2.47-2.83-5.88-2.83-10.23M141.85,365.85c-1.11,0-2.14.1-3.09.31-.95.21-1.91.51-2.86.93-.03.34-.05.71-.07,1.07-.02.36-.02.72-.02,1.06,0,1.4.09,2.71.28,3.95.2,1.24.53,2.32,1.03,3.26.49.93,1.15,1.68,1.97,2.24.82.55,1.87.83,3.14.83,1.05,0,1.93-.22,2.66-.67.74-.45,1.34-1.02,1.81-1.71.48-.7.82-1.45,1.03-2.26.2-.81.3-1.59.3-2.35,0-2.16-.51-3.8-1.54-4.94-1.03-1.14-2.58-1.71-4.63-1.71h0ZM141.85,365.85"/>
  <path class="st0" d="M173.85,365.95c0-5.52.98-9.77,2.93-12.74,1.95-2.98,4.65-4.48,8.11-4.48s6.16,1.49,8.11,4.48c1.95,2.97,2.93,7.22,2.93,12.74s-.98,9.77-2.93,12.75c-1.95,2.98-4.66,4.47-8.11,4.47s-6.16-1.49-8.11-4.47c-1.95-2.98-2.93-7.23-2.93-12.75M191.25,365.95c0-1.81-.1-3.52-.3-5.13-.21-1.62-.55-3.03-1.05-4.24-.49-1.2-1.15-2.16-1.97-2.88-.83-.71-1.84-1.06-3.04-1.06s-2.22.35-3.05,1.06c-.82.72-1.48,1.67-1.97,2.88-.49,1.21-.85,2.61-1.05,4.24-.2,1.61-.3,3.33-.3,5.13s.1,3.52.3,5.13c.2,1.62.56,3.03,1.05,4.23.49,1.2,1.15,2.17,1.97,2.88.82.71,1.84,1.07,3.05,1.07s2.21-.35,3.04-1.07c.82-.71,1.48-1.67,1.97-2.88.49-1.21.84-2.61,1.05-4.23.2-1.61.3-3.33.3-5.13h0ZM191.25,365.95"/>
  <path class="st0" d="M226.49,379.17c4.82,0,7.23-1.64,7.23-4.95,0-1.01-.22-1.88-.64-2.59-.43-.71-1.01-1.33-1.74-1.86-.73-.52-1.56-.97-2.5-1.35-.94-.38-1.93-.76-2.98-1.14-1.2-.41-2.35-.88-3.43-1.4-1.07-.52-2.01-1.14-2.8-1.86-.79-.71-1.42-1.56-1.88-2.54-.46-.99-.69-2.18-.69-3.57,0-2.88.98-5.13,2.95-6.75,1.96-1.61,4.67-2.43,8.13-2.43,2,0,3.81.22,5.44.64,1.63.43,2.83.9,3.59,1.41l-1.47,3.76c-.67-.41-1.66-.82-2.98-1.21-1.31-.4-2.85-.6-4.59-.6-.89,0-1.71.09-2.47.28-.77.2-1.43.48-2,.86-.56.37-1.02.86-1.35,1.45-.33.59-.5,1.28-.5,2.07,0,.89.18,1.63.52,2.24.35.6.85,1.13,1.48,1.59.63.46,1.37.88,2.21,1.27.84.37,1.77.76,2.78,1.13,1.42.57,2.73,1.14,3.92,1.71,1.19.57,2.22,1.25,3.09,2.04.87.8,1.54,1.74,2.02,2.83.48,1.1.71,2.42.71,3.97,0,2.89-1.05,5.1-3.16,6.66-2.11,1.55-5.08,2.33-8.91,2.33-1.3,0-2.5-.09-3.59-.27-1.1-.17-2.07-.37-2.93-.62-.85-.23-1.59-.48-2.21-.76-.62-.27-1.1-.5-1.45-.69l1.38-3.8c.73.41,1.84.87,3.33,1.38,1.49.51,3.31.76,5.47.76h0ZM226.49,379.17"/>
  <path class="st0" d="M282.6,349.5v3.99h-10.36v28.96h-4.62v-28.96h-10.36v-3.99h25.34ZM282.6,349.5"/>
  <path class="st0" d="M316.18,383.16c-2.15,0-4.02-.34-5.61-1-1.58-.67-2.88-1.57-3.9-2.73-1.01-1.16-1.77-2.53-2.25-4.12-.49-1.58-.74-3.3-.74-5.13v-20.68h4.62v20.16c0,3.29.73,5.69,2.18,7.18,1.46,1.49,3.37,2.23,5.71,2.23,1.17,0,2.25-.18,3.22-.55.96-.36,1.8-.92,2.5-1.68.7-.77,1.24-1.74,1.61-2.93.38-1.19.57-2.61.57-4.26v-20.16h4.62v20.68c0,1.84-.25,3.55-.74,5.13-.49,1.59-1.25,2.96-2.28,4.12-1.03,1.16-2.33,2.07-3.9,2.73-1.56.67-3.43,1-5.59,1h0ZM316.18,383.16"/>
  <path class="st0" d="M380.14,365.95c0,2.86-.44,5.34-1.33,7.44-.88,2.11-2.14,3.85-3.76,5.23-1.61,1.39-3.54,2.41-5.8,3.09-2.25.69-4.73,1.03-7.42,1.03-1.33,0-2.79-.05-4.4-.16-1.6-.11-3.05-.33-4.35-.64v-31.96c1.3-.31,2.75-.52,4.35-.64,1.6-.11,3.07-.16,4.4-.16,2.69,0,5.16.34,7.42,1.03,2.25.68,4.19,1.71,5.8,3.09,1.62,1.38,2.87,3.12,3.76,5.23.89,2.11,1.33,4.59,1.33,7.44M362.22,378.69c4.38,0,7.64-1.12,9.79-3.36,2.16-2.23,3.24-5.36,3.24-9.39s-1.08-7.15-3.24-9.39c-2.15-2.24-5.42-3.35-9.79-3.35-1.3,0-2.31.01-3.02.05-.71.03-1.21.06-1.5.09v25.2c.29.03.79.06,1.5.09.71.04,1.72.05,3.02.05h0ZM362.22,378.69"/>
  <rect class="st0" x="403.44" y="349.5" width="4.62" height="32.95"/>
  <path class="st0" d="M431.36,365.95c0-2.82.42-5.31,1.26-7.46.85-2.15,1.98-3.95,3.43-5.4,1.44-1.44,3.12-2.53,5.04-3.26,1.92-.73,3.95-1.1,6.11-1.1s4.13.37,6.01,1.1c1.89.73,3.55,1.82,4.97,3.26,1.43,1.45,2.56,3.25,3.4,5.4.84,2.16,1.26,4.65,1.26,7.46s-.42,5.31-1.26,7.47c-.85,2.16-1.97,3.95-3.4,5.4-1.42,1.44-3.08,2.53-4.97,3.26-1.89.73-3.89,1.1-6.01,1.1s-4.2-.37-6.11-1.1c-1.92-.73-3.6-1.82-5.04-3.26-1.45-1.45-2.58-3.24-3.43-5.4-.84-2.15-1.26-4.64-1.26-7.47M436.21,365.95c0,2,.25,3.81.76,5.45.51,1.63,1.23,3.02,2.17,4.16.93,1.13,2.07,2.02,3.42,2.64,1.35.62,2.86.92,4.54.92s3.19-.3,4.52-.92c1.33-.62,2.47-1.5,3.4-2.64.94-1.14,1.66-2.54,2.17-4.16.5-1.64.76-3.45.76-5.45s-.26-3.81-.76-5.45c-.51-1.63-1.23-3.01-2.17-4.16-.93-1.14-2.07-2.03-3.4-2.64-1.33-.62-2.84-.92-4.52-.92s-3.19.3-4.54.92c-1.35.62-2.49,1.5-3.42,2.64-.94,1.14-1.66,2.53-2.17,4.16-.51,1.64-.76,3.45-.76,5.45h0ZM436.21,365.95"/>
  <path class="st0" d="M107.7,409.59c0,1.41-.22,2.64-.67,3.69-.45,1.05-1.06,1.93-1.87,2.62-.8.7-1.75,1.22-2.86,1.57-1.11.34-2.33.52-3.67.52-.67,0-1.36-.04-2.09-.11-.74-.07-1.38-.18-1.93-.32v-15.9c.55-.16,1.2-.27,1.93-.35.73-.07,1.42-.1,2.09-.1,1.34,0,2.56.17,3.67.52,1.11.34,2.07.87,2.86,1.57.81.7,1.42,1.57,1.87,2.62.45,1.05.67,2.27.67,3.67M96.23,416.42c.09.02.33.05.73.09.38.05,1.01.07,1.87.07,1.19,0,2.23-.16,3.12-.48.89-.33,1.63-.79,2.24-1.39.6-.6,1.06-1.34,1.36-2.21.3-.86.45-1.83.45-2.91s-.15-2.05-.45-2.91c-.3-.85-.76-1.58-1.36-2.18-.6-.6-1.35-1.07-2.24-1.39-.88-.33-1.93-.49-3.12-.49-.86,0-1.49.02-1.87.07-.39.05-.64.09-.73.1v13.64ZM119.49,417.85v-16.5h9.52v1.41h-7.91v5.74h7.05v1.38h-7.05v6.57h8.52v1.4h-10.14ZM144.41,416.8c1.29,0,2.29-.23,3.01-.7.71-.47,1.07-1.23,1.07-2.28,0-.6-.12-1.1-.34-1.51-.24-.41-.54-.74-.92-1.03-.38-.27-.82-.52-1.31-.71-.49-.19-1.01-.41-1.55-.63-.68-.27-1.29-.55-1.83-.83-.54-.29-1-.61-1.38-.96-.38-.36-.67-.77-.87-1.23-.2-.46-.3-1-.3-1.62,0-1.41.46-2.48,1.4-3.22.94-.73,2.24-1.1,3.9-1.1.44,0,.88.03,1.31.1.43.06.83.14,1.21.24.37.11.71.22,1.02.35.31.12.56.26.78.4l-.57,1.36c-.46-.32-1.03-.57-1.68-.77-.66-.19-1.37-.28-2.13-.28-.52,0-1,.05-1.44.16-.44.1-.81.26-1.14.5-.31.23-.56.51-.74.87-.19.34-.27.77-.27,1.26s.09.93.28,1.28c.19.35.45.65.8.91.34.25.74.48,1.2.69.45.2.96.42,1.49.64.65.27,1.27.54,1.85.81.58.27,1.08.59,1.51.95.43.37.78.81,1.03,1.34.26.52.38,1.17.38,1.93,0,1.49-.52,2.61-1.56,3.36-1.03.74-2.44,1.12-4.23,1.12-.64,0-1.21-.04-1.74-.12-.52-.08-.99-.18-1.4-.3-.41-.12-.77-.24-1.05-.37-.29-.13-.51-.24-.67-.34l.52-1.41c.16.1.37.21.64.34.27.13.59.25.95.37.36.12.78.22,1.24.3.46.08.96.12,1.52.12h0ZM161.34,401.35h1.62v16.5h-1.62v-16.5ZM185.7,410.04h1.62v7.36c-.3.12-.9.29-1.78.48-.89.2-1.97.3-3.25.3-1.08,0-2.08-.19-3.01-.57-.92-.38-1.71-.93-2.39-1.66-.68-.72-1.21-1.61-1.59-2.68-.37-1.07-.57-2.3-.57-3.68s.21-2.61.62-3.68c.41-1.07.98-1.97,1.68-2.69.71-.72,1.53-1.28,2.47-1.66.93-.37,1.93-.57,3-.57,1.22,0,2.23.13,3.02.4.8.26,1.38.51,1.74.75l-.55,1.38c-.44-.32-1.05-.58-1.82-.78-.76-.19-1.59-.3-2.47-.3-.83,0-1.6.15-2.33.45-.74.3-1.37.75-1.91,1.35-.54.6-.96,1.35-1.27,2.24-.31.89-.47,1.93-.47,3.1,0,1.1.13,2.08.38,2.96.25.88.64,1.63,1.15,2.26.52.63,1.16,1.11,1.92,1.45.77.33,1.64.49,2.64.49.82,0,1.49-.04,2.04-.12.55-.09.92-.17,1.11-.25v-6.34ZM210.49,417.85c-.31-.55-.69-1.2-1.16-1.95-.47-.74-.98-1.54-1.53-2.4-.55-.85-1.14-1.72-1.76-2.62-.62-.89-1.24-1.77-1.85-2.61-.61-.85-1.2-1.65-1.78-2.39s-1.1-1.39-1.56-1.93v13.9h-1.6v-16.5h1.28c.81.91,1.67,1.95,2.61,3.13.93,1.18,1.84,2.39,2.72,3.62.89,1.23,1.72,2.43,2.49,3.6.78,1.18,1.4,2.2,1.9,3.08v-13.43h1.6v16.5h-1.35ZM247.32,413.61c.34-.55.6-1.17.81-1.82.21-.66.35-1.32.43-1.99l1.34.16c-.09.78-.26,1.56-.52,2.36-.27.79-.65,1.54-1.12,2.26.59.6,1.11,1.17,1.58,1.71.47.54.84,1.05,1.1,1.54h-1.74c-.22-.36-.48-.72-.8-1.08-.31-.36-.64-.72-1.01-1.08-.67.71-1.44,1.28-2.32,1.72-.88.44-1.86.66-2.96.66-.97,0-1.79-.14-2.44-.41-.66-.28-1.19-.64-1.6-1.07-.41-.44-.7-.92-.87-1.44-.17-.52-.26-1.04-.26-1.55,0-.63.09-1.2.3-1.7.2-.5.46-.94.79-1.33.34-.39.73-.74,1.17-1.03.44-.3.9-.56,1.38-.79-.7-.65-1.19-1.28-1.46-1.9-.28-.62-.41-1.24-.41-1.89s.09-1.17.3-1.67c.2-.48.48-.91.83-1.24.36-.34.78-.6,1.28-.78.49-.17,1.03-.27,1.6-.27s1.12.09,1.6.27c.47.19.87.43,1.19.74.31.3.56.67.74,1.1.17.43.27.89.27,1.38,0,.59-.11,1.11-.31,1.58-.2.47-.48.89-.81,1.25-.34.36-.72.69-1.16.97-.44.29-.88.55-1.32.79l4.43,4.52M242.1,416.71c.92,0,1.74-.17,2.47-.52.72-.34,1.35-.82,1.89-1.42l-4.99-5.12c-.32.16-.65.34-.99.55-.34.2-.65.46-.92.78-.28.3-.51.67-.68,1.1-.17.43-.27.94-.27,1.52,0,.36.07.74.2,1.1.12.38.32.71.6,1,.26.3.63.53,1.07.73.44.19.99.28,1.64.28M245.01,404.52c0-.62-.21-1.14-.63-1.56-.41-.41-.96-.63-1.63-.63-.81,0-1.42.22-1.85.65-.42.44-.63,1.04-.63,1.8,0,.55.13,1.11.38,1.66.24.55.71,1.13,1.42,1.77.85-.41,1.56-.89,2.11-1.45.56-.55.84-1.31.84-2.24h0ZM279.03,418c-.27,0-.58-.02-.94-.04-.36-.02-.72-.05-1.1-.09-.37-.04-.73-.09-1.06-.14-.34-.06-.62-.12-.86-.18v-15.88c.29-.09.6-.15.96-.2.34-.06.71-.1,1.08-.15.37-.04.74-.06,1.1-.08.36-.01.69-.02.99-.02.89,0,1.74.07,2.53.21.81.14,1.51.38,2.11.71.6.34,1.08.77,1.44,1.32.35.55.53,1.23.53,2.03,0,.89-.23,1.65-.67,2.28-.45.63-1.07,1.06-1.83,1.3.48.11.91.26,1.31.48.4.2.74.47,1.05.79.3.33.53.73.71,1.2.16.46.25,1.03.25,1.67,0,1.56-.62,2.74-1.86,3.56-1.24.82-3.15,1.23-5.74,1.23M276.69,409.94v6.5c.23.03.6.06,1.07.11.48.04.96.05,1.45.05.73,0,1.44-.05,2.13-.14.69-.09,1.3-.27,1.82-.52.52-.25.94-.6,1.26-1.05.31-.45.48-1.02.48-1.71,0-.63-.12-1.17-.34-1.58-.22-.42-.54-.76-.95-1-.41-.24-.92-.41-1.51-.51-.6-.1-1.26-.15-1.99-.15h-3.43M276.69,408.57h3.15c.59,0,1.14-.05,1.67-.13.52-.09.98-.24,1.37-.48.38-.23.69-.54.92-.92.22-.39.33-.89.33-1.49,0-.54-.12-.99-.35-1.36-.24-.37-.58-.68-1.02-.92-.43-.23-.95-.41-1.56-.51-.6-.1-1.27-.16-2-.16-.59,0-1.08.02-1.49.05-.4.03-.74.07-1.01.12v5.81ZM298.24,417.85v-16.5h9.52v1.41h-7.9v5.74h7.05v1.38h-7.05v6.57h8.52v1.4h-10.14ZM323.45,417.85v-6.78c-1.13-1.73-2.16-3.4-3.11-5.01-.95-1.61-1.82-3.18-2.63-4.7h1.88c.67,1.39,1.4,2.82,2.21,4.25.8,1.44,1.64,2.81,2.51,4.11.84-1.3,1.66-2.67,2.47-4.11.81-1.43,1.56-2.86,2.24-4.25h1.76c-.84,1.51-1.73,3.08-2.67,4.7-.93,1.63-1.95,3.28-3.05,4.96v6.83h-1.62ZM356.14,409.59c0,1.41-.2,2.65-.62,3.73-.41,1.08-.97,1.98-1.68,2.71-.7.72-1.52,1.26-2.46,1.63-.94.37-1.93.55-2.98.55s-2.04-.18-2.98-.55c-.94-.37-1.76-.91-2.46-1.63-.71-.73-1.27-1.63-1.67-2.71-.41-1.08-.62-2.32-.62-3.73s.2-2.66.62-3.72c.41-1.07.97-1.97,1.67-2.69.7-.73,1.52-1.27,2.46-1.63.94-.36,1.93-.55,2.98-.55s2.04.19,2.98.55c.93.37,1.75.91,2.46,1.63.71.72,1.27,1.62,1.68,2.69.41,1.06.62,2.31.62,3.72M354.43,409.59c0-1.11-.14-2.11-.43-2.99-.28-.88-.69-1.63-1.21-2.25-.52-.62-1.15-1.09-1.89-1.42-.74-.32-1.56-.48-2.49-.48s-1.75.16-2.49.48c-.74.33-1.37.8-1.89,1.42-.52.62-.92,1.37-1.21,2.25-.28.88-.42,1.88-.42,2.99s.14,2.11.42,2.98c.29.88.7,1.63,1.21,2.25.52.62,1.16,1.1,1.89,1.43.75.33,1.57.49,2.49.49s1.75-.16,2.49-.49c.74-.34,1.37-.81,1.89-1.43.52-.62.93-1.37,1.21-2.25.29-.88.43-1.87.43-2.98h0ZM379.17,417.85c-.3-.55-.69-1.2-1.16-1.95-.46-.74-.98-1.54-1.53-2.4-.55-.85-1.14-1.72-1.76-2.62-.62-.89-1.24-1.77-1.85-2.61-.61-.85-1.21-1.65-1.79-2.39-.58-.74-1.1-1.39-1.56-1.93v13.9h-1.6v-16.5h1.28c.82.91,1.68,1.95,2.61,3.13.93,1.18,1.84,2.39,2.73,3.62.89,1.23,1.71,2.43,2.49,3.6.77,1.18,1.4,2.2,1.89,3.08v-13.43h1.6v16.5h-1.35ZM406.07,409.59c0,1.41-.23,2.64-.67,3.69-.44,1.05-1.06,1.93-1.86,2.62-.81.7-1.76,1.22-2.87,1.57-1.11.34-2.33.52-3.66.52-.67,0-1.37-.04-2.1-.11-.74-.07-1.38-.18-1.93-.32v-15.9c.55-.16,1.2-.27,1.93-.35.73-.07,1.42-.1,2.1-.1,1.33,0,2.55.17,3.66.52,1.11.34,2.07.87,2.87,1.57.8.7,1.42,1.57,1.86,2.62.45,1.05.67,2.27.67,3.67M394.59,416.42c.09.02.34.05.73.09.39.05,1.01.07,1.87.07,1.19,0,2.23-.16,3.12-.48.89-.33,1.63-.79,2.24-1.39.6-.6,1.06-1.34,1.36-2.21.3-.86.45-1.83.45-2.91s-.16-2.05-.45-2.91c-.31-.85-.76-1.58-1.36-2.18-.6-.6-1.35-1.07-2.24-1.39-.89-.33-1.93-.49-3.12-.49-.86,0-1.48.02-1.87.07-.39.05-.64.09-.73.1v13.64ZM394.59,416.42"/>
  <path class="st0" d="M281.12,268.38c5.6,14.13,2.06,18.85-7.66,20.91h81.01c-11.2-2.06-18.85-6.78-24.45-21.21l-73.05-186.45-23.85,59.8,48.01,126.95ZM200.71,289.29c-17.67-4.12-21.8-12.66-9.72-42.42-12.96,29.75-22.98,38.29-44.77,42.42h54.49ZM200.71,289.29"/>
</svg>